<mxfile host="65bd71144e">
    <diagram id="Z8tcA6wfnXXTryXjgZ6U" name="Page-1">
        <mxGraphModel dx="951" dy="1297" grid="1" gridSize="10" guides="1" tooltips="1" connect="1" arrows="1" fold="1" page="1" pageScale="1" pageWidth="850" pageHeight="1100" math="0" shadow="0">
            <root>
                <mxCell id="0"/>
                <mxCell id="1" parent="0"/>
                <mxCell id="2" value="&amp;nbsp; A" style="rounded=0;whiteSpace=wrap;html=1;align=left;fontSize=30;" vertex="1" parent="1">
                    <mxGeometry x="50" y="60" width="90" height="60" as="geometry"/>
                </mxCell>
                <mxCell id="3" value="" style="ellipse;whiteSpace=wrap;html=1;aspect=fixed;" vertex="1" parent="1">
                    <mxGeometry x="100" y="75" width="30" height="30" as="geometry"/>
                </mxCell>
                <mxCell id="4" value="&amp;nbsp; B" style="rounded=0;whiteSpace=wrap;html=1;align=left;fontSize=30;" vertex="1" parent="1">
                    <mxGeometry x="50" y="350" width="90" height="60" as="geometry"/>
                </mxCell>
                <mxCell id="5" value="" style="ellipse;whiteSpace=wrap;html=1;aspect=fixed;" vertex="1" parent="1">
                    <mxGeometry x="100" y="365" width="30" height="30" as="geometry"/>
                </mxCell>
                <mxCell id="6" value="" style="rounded=0;whiteSpace=wrap;html=1;align=left;fontSize=30;" vertex="1" parent="1">
                    <mxGeometry x="190" y="60" width="130" height="60" as="geometry"/>
                </mxCell>
                <mxCell id="22" style="edgeStyle=none;html=1;exitX=1;exitY=0.5;exitDx=0;exitDy=0;entryX=0;entryY=0.5;entryDx=0;entryDy=0;fontSize=30;endArrow=block;endFill=1;endSize=15;" edge="1" parent="1" source="8" target="17">
                    <mxGeometry relative="1" as="geometry"/>
                </mxCell>
                <mxCell id="8" value="" style="ellipse;whiteSpace=wrap;html=1;aspect=fixed;" vertex="1" parent="1">
                    <mxGeometry x="280" y="75" width="30" height="30" as="geometry"/>
                </mxCell>
                <mxCell id="9" value=".x" style="rounded=0;whiteSpace=wrap;html=1;align=center;fontSize=30;" vertex="1" parent="1">
                    <mxGeometry x="190" y="120" width="130" height="60" as="geometry"/>
                </mxCell>
                <mxCell id="10" value=".y" style="rounded=0;whiteSpace=wrap;html=1;align=center;fontSize=30;" vertex="1" parent="1">
                    <mxGeometry x="190" y="180" width="130" height="60" as="geometry"/>
                </mxCell>
                <mxCell id="11" value="" style="rounded=0;whiteSpace=wrap;html=1;align=left;fontSize=30;" vertex="1" parent="1">
                    <mxGeometry x="190" y="350" width="130" height="60" as="geometry"/>
                </mxCell>
                <mxCell id="23" style="edgeStyle=orthogonalEdgeStyle;html=1;exitX=1;exitY=0.5;exitDx=0;exitDy=0;fontSize=30;endArrow=block;endFill=1;endSize=15;entryX=0;entryY=0.5;entryDx=0;entryDy=0;" edge="1" parent="1" source="12" target="17">
                    <mxGeometry relative="1" as="geometry">
                        <mxPoint x="490" y="90" as="targetPoint"/>
                    </mxGeometry>
                </mxCell>
                <mxCell id="12" value="" style="ellipse;whiteSpace=wrap;html=1;aspect=fixed;" vertex="1" parent="1">
                    <mxGeometry x="280" y="365" width="30" height="30" as="geometry"/>
                </mxCell>
                <mxCell id="13" value=".x" style="rounded=0;whiteSpace=wrap;html=1;align=center;fontSize=30;" vertex="1" parent="1">
                    <mxGeometry x="190" y="410" width="130" height="60" as="geometry"/>
                </mxCell>
                <mxCell id="14" value=".y" style="rounded=0;whiteSpace=wrap;html=1;align=center;fontSize=30;" vertex="1" parent="1">
                    <mxGeometry x="190" y="470" width="130" height="60" as="geometry"/>
                </mxCell>
                <mxCell id="17" value="&amp;nbsp; .p" style="rounded=0;whiteSpace=wrap;html=1;align=left;fontSize=30;" vertex="1" parent="1">
                    <mxGeometry x="490" y="60" width="110" height="60" as="geometry"/>
                </mxCell>
                <mxCell id="24" style="edgeStyle=orthogonalEdgeStyle;html=1;exitX=1;exitY=0.5;exitDx=0;exitDy=0;fontSize=30;endArrow=block;endFill=1;endSize=15;" edge="1" parent="1" source="19">
                    <mxGeometry relative="1" as="geometry">
                        <mxPoint x="670" y="89.95238095238096" as="targetPoint"/>
                    </mxGeometry>
                </mxCell>
                <mxCell id="19" value="" style="ellipse;whiteSpace=wrap;html=1;aspect=fixed;" vertex="1" parent="1">
                    <mxGeometry x="560" y="75" width="30" height="30" as="geometry"/>
                </mxCell>
                <mxCell id="20" value="&amp;nbsp; .q" style="rounded=0;whiteSpace=wrap;html=1;align=left;fontSize=30;" vertex="1" parent="1">
                    <mxGeometry x="490" y="120" width="110" height="60" as="geometry"/>
                </mxCell>
                <mxCell id="25" style="edgeStyle=orthogonalEdgeStyle;html=1;exitX=1;exitY=0.5;exitDx=0;exitDy=0;fontSize=30;endArrow=block;endFill=1;endSize=15;" edge="1" parent="1" source="21">
                    <mxGeometry relative="1" as="geometry">
                        <mxPoint x="670" y="149.95238095238096" as="targetPoint"/>
                    </mxGeometry>
                </mxCell>
                <mxCell id="21" value="" style="ellipse;whiteSpace=wrap;html=1;aspect=fixed;" vertex="1" parent="1">
                    <mxGeometry x="560" y="135" width="30" height="30" as="geometry"/>
                </mxCell>
                <mxCell id="16" style="edgeStyle=none;html=1;exitX=1;exitY=0.5;exitDx=0;exitDy=0;entryX=0;entryY=0.5;entryDx=0;entryDy=0;fontSize=30;endArrow=block;endFill=1;endSize=15;" edge="1" parent="1" source="3" target="6">
                    <mxGeometry relative="1" as="geometry"/>
                </mxCell>
                <mxCell id="15" style="edgeStyle=none;html=1;exitX=1;exitY=0.5;exitDx=0;exitDy=0;entryX=0;entryY=0.5;entryDx=0;entryDy=0;fontSize=30;endArrow=block;endFill=1;endSize=15;" edge="1" parent="1" source="5" target="11">
                    <mxGeometry relative="1" as="geometry"/>
                </mxCell>
                <mxCell id="26" value="..." style="text;html=1;strokeColor=none;fillColor=none;align=center;verticalAlign=bottom;whiteSpace=wrap;rounded=0;fontSize=30;" vertex="1" parent="1">
                    <mxGeometry x="670" y="75" width="40" height="30" as="geometry"/>
                </mxCell>
                <mxCell id="27" value="..." style="text;html=1;strokeColor=none;fillColor=none;align=center;verticalAlign=bottom;whiteSpace=wrap;rounded=0;fontSize=30;" vertex="1" parent="1">
                    <mxGeometry x="670" y="135" width="40" height="30" as="geometry"/>
                </mxCell>
                <mxCell id="28" value="Method Lookup Table for MyClass" style="text;html=1;strokeColor=none;fillColor=none;align=center;verticalAlign=middle;whiteSpace=wrap;rounded=0;fontSize=15;" vertex="1" parent="1">
                    <mxGeometry x="455" y="10" width="180" height="30" as="geometry"/>
                </mxCell>
                <mxCell id="29" value="Contains the addresses of methods (to allow jump)" style="text;html=1;strokeColor=none;fillColor=none;align=center;verticalAlign=middle;whiteSpace=wrap;rounded=0;fontSize=15;" vertex="1" parent="1">
                    <mxGeometry x="465" y="195" width="180" height="30" as="geometry"/>
                </mxCell>
                <mxCell id="30" value="Pointer to the object" style="text;html=1;strokeColor=none;fillColor=none;align=center;verticalAlign=middle;whiteSpace=wrap;rounded=0;fontSize=15;" vertex="1" parent="1">
                    <mxGeometry x="17.5" y="30" width="155" height="30" as="geometry"/>
                </mxCell>
                <mxCell id="31" value="Pointer to the object" style="text;html=1;strokeColor=none;fillColor=none;align=center;verticalAlign=middle;whiteSpace=wrap;rounded=0;fontSize=15;" vertex="1" parent="1">
                    <mxGeometry x="10" y="320" width="155" height="30" as="geometry"/>
                </mxCell>
                <mxCell id="34" value="" style="endArrow=classic;html=1;fontSize=15;endSize=15;" edge="1" parent="1">
                    <mxGeometry width="50" height="50" relative="1" as="geometry">
                        <mxPoint x="340" y="420" as="sourcePoint"/>
                        <mxPoint x="340" y="470" as="targetPoint"/>
                    </mxGeometry>
                </mxCell>
                <mxCell id="35" value="" style="endArrow=classic;html=1;fontSize=15;endSize=15;" edge="1" parent="1">
                    <mxGeometry width="50" height="50" relative="1" as="geometry">
                        <mxPoint x="340" y="480" as="sourcePoint"/>
                        <mxPoint x="340" y="530" as="targetPoint"/>
                    </mxGeometry>
                </mxCell>
                <mxCell id="36" value="Traverse from memory location of start to get to fields" style="text;html=1;strokeColor=none;fillColor=none;align=center;verticalAlign=middle;whiteSpace=wrap;rounded=0;fontSize=15;" vertex="1" parent="1">
                    <mxGeometry x="360" y="430" width="140" height="70" as="geometry"/>
                </mxCell>
            </root>
        </mxGraphModel>
    </diagram>
</mxfile>